<?xml version="1.0" encoding="UTF-8"?><svg id="Layer_1" xmlns="http://www.w3.org/2000/svg" viewBox="0 0 61.33 63.11"><defs><style>.cls-1{fill:#fff;}</style></defs><rect x="-.03" y=".14" width="61.33" height="63.11"/><path class="cls-1" d="M47.18,16.59c-7.67,2.59-16.54-5-16.54-5,0,0-8.87,7.59-16.54,5,0,0-.13,14.4,.53,19.15,.73,5.3,3.24,11.66,16.01,16.06,12.77-4.4,15.28-10.76,16.01-16.06,.65-4.75,.53-19.15,.53-19.15Zm-21.09,9.3c0-2.14,2.04-3.87,4.52-3.87s4.52,1.73,4.52,3.87v3.49h-1.38v-3.49c0-1.46-1.41-2.64-3.12-2.64s-3.12,1.18-3.12,2.64v3.49h-1.43v-3.49Zm11.16,14.96h-13.2v-11.11h13.2v11.11Z"/></svg>