<svg xmlns="http://www.w3.org/2000/svg" id="Layer_1" viewBox="0 0 183.94 200"><defs><style>.cls-1{fill:#3a94e8;}</style></defs><path class="cls-1" d="M91.97,100.01c27.48,0,49.83-22.43,49.83-50S119.45,0,91.97,0,42.13,22.43,42.13,50.01s22.35,50,49.84,50ZM59.03,50.01c0-18.22,14.78-33.06,32.94-33.06s32.94,14.83,32.94,33.06-14.78,33.05-32.94,33.05-32.94-14.83-32.94-33.05Z"></path><path class="cls-1" d="M150.57,116.99H33.37C14.97,116.99,0,132,0,150.46v41.06c0,4.67,3.79,8.48,8.45,8.48H175.49c4.66,0,8.45-3.81,8.45-8.48v-41.06c0-18.46-14.97-33.48-33.37-33.48h0ZM16.89,183.05v-32.58c0-9.11,7.39-16.53,16.48-16.53h117.2c9.08,0,16.48,7.42,16.48,16.53v32.58s-150.15,0-150.15,0Z"></path></svg>