<svg xmlns="http://www.w3.org/2000/svg" xmlns:xlink="http://www.w3.org/1999/xlink" id="Layer_1" x="0px" y="0px" viewBox="0 0 200 200" style="enable-background:new 0 0 200 200;" xml:space="preserve"><style type="text/css">	.st0{fill:#54994B;}</style><g>	<path class="st0" d="M189.6,100v8.3H68.8V100H189.6z"></path>	<path class="st0" d="M143.8,104.2h-8.3v-8.3h-12.5v-8.3h16.7c2.3,0,4.2,1.9,4.2,4.2V104.2z"></path>	<path class="st0" d="M160.4,104.2h-8.3V91.7c0-2.3,1.9-4.2,4.2-4.2h20.8V45.8h-16.7v-8.3h20.8c2.3,0,4.2,1.9,4.2,4.2v50  c0,2.3-1.9,4.2-4.2,4.2h-20.8V104.2z"></path>	<path class="st0" d="M156.2,79.2h-12.5c-2.3,0-4.2-1.9-4.2-4.2V4.2c0-2.3,1.9-4.2,4.2-4.2h12.5c6.9,0,12.5,5.6,12.5,12.5v54.2  C168.8,73.6,163.1,79.2,156.2,79.2z M147.9,70.8h8.3c2.3,0,4.2-1.9,4.2-4.2V12.5c0-2.3-1.9-4.2-4.2-4.2h-8.3V70.8z"></path>	<path class="st0" d="M56.3,166.7v20.8h-8.3v-20.8H56.3z"></path>	<path class="st0" d="M106.8,197.8l-23.8-43.7H56.3c-16.1,0-29.2-13.1-29.2-29.2V79.2c0-11.5,9.3-20.8,20.8-20.8h16.7  c0.9,0,1.7,0.3,2.4,0.8l28.1,20.1h19.5c2.1,0,3.9,1.6,4.1,3.7c0.1,0.5,1.3,11.8-5.4,19.3c-3.7,4.1-8.9,6.2-15.4,6.2H81.2  c-0.8,0-1.6-0.2-2.3-0.7L53.9,91l4.6-6.9l24,16h15.4c4.1,0,7.1-1.1,9.2-3.4c2.3-2.6,3.1-6.3,3.3-9.1H93.8c-0.9,0-1.7-0.3-2.4-0.8  L63.2,66.7H47.9c-6.9,0-12.5,5.6-12.5,12.5V125c0,11.5,9.3,20.8,20.8,20.8h29.2c1.5,0,2.9,0.8,3.7,2.2l25,45.8L106.8,197.8  L106.8,197.8z"></path>	<path class="st0" d="M125.4,197.1l-20.1-61.1c-2.3-6.6-8.6-11.1-15.7-11.1H68.8c-2.3,0-4.2-1.9-4.2-4.2v-25h8.3v20.8h16.7  c10.6,0,20.1,6.7,23.6,16.7l20.1,61.1L125.4,197.1L125.4,197.1z"></path>	<path class="st0" d="M77.1,170.8H47.9c-20.7,0-37.5-16.8-37.5-37.5V70.8h8.3v62.5c0,16.1,13.1,29.2,29.2,29.2h29.2V170.8z"></path>	<path class="st0" d="M52.8,135.6L45.7,125H14.6v-8.3h33.3c1.4,0,2.7,0.7,3.5,1.9l8.3,12.5L52.8,135.6L52.8,135.6z"></path>	<path class="st0" d="M77.1,200H60.4c-1.1,0-2.2-0.4-2.9-1.2l-5.4-5.4l-5.4,5.4c-0.8,0.8-1.8,1.2-2.9,1.2H27.1v-8.3H42l7.1-7.1  c1.6-1.6,4.3-1.6,5.9,0c0,0,0,0,0,0l7.1,7.1h14.9V200z"></path>	<path class="st0" d="M54.2,54.2c-12.6,0-22.9-9.9-22.9-22v-6c0-12.1,10.3-22,22.9-22s22.9,9.9,22.9,22v6  C77.1,44.3,66.8,54.2,54.2,54.2z M54.2,12.5c-8,0-14.6,6.1-14.6,13.7v6c0,7.5,6.5,13.7,14.6,13.7s14.6-6.1,14.6-13.7v-6  C68.8,18.6,62.2,12.5,54.2,12.5z"></path></g></svg>