<?xml version="1.0" encoding="utf-8"?>
<!-- Generator: Adobe Illustrator 26.5.0, SVG Export Plug-In . SVG Version: 6.00 Build 0)  -->
<svg version="1.1" id="Layer_1" xmlns="http://www.w3.org/2000/svg" xmlns:xlink="http://www.w3.org/1999/xlink" x="0px" y="0px"
	 viewBox="0 0 200 200" style="enable-background:new 0 0 200 200;" xml:space="preserve">
<style type="text/css">
	.st0{fill:#D03232;}
</style>
<g>
	<path class="st0" d="M168.2,98.4c-1.6-1.2-3.9-0.8-5,0.8c0,0,0,0,0,0l-9.8,13.7l-18.2-12.4c-0.1-0.1-0.2-0.2-0.3-0.2
		c-1.8-1.3-21.6-16-36.7-26.1c0.5-1.6,0-3.3-1.4-4.2c-1.7-1.1-3.9-0.6-5,1.1c-0.1,0.1-0.2,0.3-0.2,0.4L79.3,94.1
		c-0.6,1.1-1.8,1.6-2.4,1.7c-1.2,0.3-2.7,0.1-3.9-0.6L72.6,95c-1.2-0.7-2.2-1.7-2.6-2.9c-0.2-0.6-0.5-1.8,0.1-2.9L82,67.2
		c0,0,0,0,0,0l14.3-5.4c0.9-0.3,1.9-0.5,2.9-0.4l24.4,1.2l0,0l16.3,2.9c2,0.3,3.9-1,4.2-2.9c0-0.1,0-0.2,0-0.3
		c0.2-1.9-1.3-3.6-3.2-3.9l-16.2-2.9l-0.5-0.1L97.4,54c-0.5,0-1,0.1-1.4,0.2l-17.7,6.6c-0.7,0.3-1.3,0.7-1.7,1.3
		c-0.2,0.3-0.5,0.7-0.7,1.1l-0.4,0.7c-6.7-0.4-17.3-1.9-17.4-1.9c-2-0.3-3.8,1.1-4.1,3.1c0,0,0,0,0,0c-0.3,2-6.2,3,3.1,4.1
		c0.4,0,8.1,1.1,14.7,1.7l-8,14.9c-1.4,2.7-1.6,5.9-0.5,8.9c1.1,2.9,3.2,5.3,6,6.8l0.4,0.2c1.9,1,4,1.6,6.2,1.6
		c0.9,0,1.8-0.1,2.7-0.3c3.1-0.7,5.7-2.7,7.2-5.3l9.1-16.9c15.5,10.4,35.6,25.4,35.9,25.5c0.1,0.1,0.2,0.1,0.3,0.2l21.3,14.5
		c0.9,0.6,1.5,1.5,1.7,2.5c0.2,1,0,2.1-0.6,3l-0.2,0.3c-1.2,1.8-3.7,2.3-5.5,1c0,0,0,0,0,0l-21.1-14.4c-1.6-1.1-3.9-0.7-5,0.9
		c0,0,0,0,0,0c-1.1,1.7-0.7,3.9,1,5l16.4,11.2c0.2,0.2,0.4,0.4,0.6,0.6c0.9,0.6,1.5,1.5,1.7,2.5c0.2,1,0,2.1-0.6,3l-0.2,0.3
		c-1.2,1.8-3.7,2.3-5.6,1l-18.3-11.8c-1.7-1.1-3.9-0.6-5,1.1c0,0,0,0,0,0c-1.1,1.7-0.6,3.9,1.1,5l15,9.7c0.2,0.2,0.4,0.5,0.7,0.7
		c0.9,0.6,1.5,1.5,1.7,2.5c0.2,1,0,2.1-0.6,3l-0.2,0.3c-1.2,1.8-3.7,2.3-5.5,1c0,0,0,0,0,0l-14.8-10c-1.7-1.1-3.9-0.7-5,1
		c0,0,0,0,0,0c-1.1,1.7-0.7,3.9,1,5l10,6.7c0.2,0.3,0.5,0.5,0.8,0.8c0.9,0.6,1.5,1.5,1.7,2.5c0.2,1,0,2.1-0.6,3l-0.2,0.3
		c-1.2,1.8-3.7,2.3-5.5,1.1l-13.2-9.1l2.8-3.9c3.1-4.4,2.1-10.6-2.4-13.7l-0.8-0.6c-1-0.7-2.1-1.2-3.3-1.5c0.8-4.1-0.7-8.5-4.4-11.1
		l-0.9-0.7c-2-1.4-4.5-2.1-6.9-1.9c0-0.1,0-0.2,0-0.3c-0.5-2.9-2.1-5.5-4.6-7.3l-0.3-0.2c-3.9-2.7-8.9-2.6-12.7-0.1
		c-0.6-0.9-1.4-1.8-2.4-2.4l-0.8-0.6c-2.1-1.5-4.8-2.1-7.3-1.6c-2.6,0.4-4.9,1.9-6.4,4l-1.7,2.4l-7.2-10.7c-9.2-14.3-3.4-2.1-5-1
		c-1.7,1.1-2.1,3.4-1,5l8.8,13l-4.4,6.3c-1.5,2.1-2.1,4.8-1.6,7.4c0.4,2.6,1.9,4.9,4,6.4l0.8,0.6c1.4,1,3,1.5,4.6,1.7
		c0.1,3.4,1.7,6.8,4.7,9l0.3,0.2c1.9,1.3,4.1,2,6.4,2c0.6,0,1.3-0.1,1.9-0.2c0.6-0.1,1.2-0.3,1.7-0.5c0.8,1.9,2.1,3.5,3.8,4.7
		l0.9,0.7c1.8,1.3,4,2,6.2,2c0.3,0,0.6-0.1,0.9-0.1c0.5,2.3,1.8,4.4,3.9,5.9l0.8,0.6c1.7,1.2,3.6,1.8,5.6,1.8c3.2,0,6.2-1.6,8-4.2
		l3.7-5.2l13.3,9.2c1.9,1.3,4,1.9,6.3,1.9c3.7,0,7.2-1.8,9.3-4.9l0.2-0.3c1.1-1.6,1.7-3.4,1.9-5.3c0.5,0.1,0.9,0.1,1.4,0.1
		c3.7,0,7.2-1.8,9.3-4.9l0.2-0.3c1.3-1.8,1.9-4,1.9-6.2c3.7,0,7.1-1.9,9.1-4.9l0.2-0.3c1-1.5,1.7-3.3,1.9-5.2
		c0.5,0.1,0.9,0.1,1.4,0.1c0.7,0,1.4-0.1,2.1-0.2c2.9-0.5,5.5-2.2,7.2-4.7l0.2-0.3c1.7-2.5,2.3-5.5,1.7-8.4c-0.3-1.7-1-3.2-2-4.6
		l10-14.1C170.2,101.8,169.8,99.5,168.2,98.4L168.2,98.4z M47.4,131.7c-0.4,0.5-1,0.9-1.6,1c-0.7,0.1-1.4,0-1.9-0.4l-0.8-0.6
		c-0.6-0.4-0.9-1-1.1-1.7c-0.1-0.7,0-1.4,0.4-1.9l10.6-15c0.4-0.6,1-0.9,1.7-1.1c0.7-0.1,1.4,0,1.9,0.4l0.8,0.6
		c1.1,0.8,1.4,2.3,0.7,3.4L47.4,131.7z M59,142.2c-0.6,0.9-1.5,1.4-2.6,1.6c-1,0.2-2.1-0.1-3-0.7l-0.3-0.2c-1.8-1.3-2.2-3.7-1-5.5
		l1-1.4c0-0.1,0.1-0.1,0.1-0.2l10.6-15c0-0.1,0.1-0.1,0.1-0.2l2.9-4.1c0.6-0.9,1.5-1.4,2.6-1.6c0.2,0,0.5-0.1,0.7-0.1
		c0.8,0,1.6,0.2,2.3,0.7l0.3,0.2c1.8,1.3,2.2,3.7,1,5.5L59,142.2L59,142.2z M73.3,149.1c-0.5,0.8-1.4,1.3-2.3,1.5
		c-0.9,0.2-1.9,0-2.7-0.6l-0.9-0.7c-1.6-1.1-2-3.4-0.9-5l12.8-18.2c1.1-1.6,3.4-2,5-0.9c0,0,0,0,0,0l0.9,0.7c1.6,1.1,2,3.4,0.9,5v0
		L73.3,149.1L73.3,149.1z M94.3,142.6l-10.6,15c-0.8,1.2-2.4,1.5-3.6,0.6l-0.8-0.6c-1.2-0.8-1.5-2.4-0.6-3.6l10.6-15
		c0.4-0.6,1-0.9,1.7-1.1c0.7-0.1,1.4,0,1.9,0.4l0.8,0.6C94.9,139.8,95.2,141.5,94.3,142.6z"/>
	<path class="st0" d="M199.7,95.3l-42.7-62.4c-0.5-0.7-1.4-0.9-2.1-0.4c0,0,0,0,0,0l-22.4,15.3c-0.7,0.5-0.9,1.4-0.4,2.1l42.7,62.4
		c0.5,0.7,1.4,0.9,2.1,0.4c0,0,0,0,0,0l22.4-15.3C200,97,200.2,96,199.7,95.3L199.7,95.3z"/>
	<path class="st0" d="M63.5,49L40.1,35.4c-0.7-0.4-1.7-0.2-2.1,0.6c0,0,0,0,0,0L0.2,101.5c-0.4,0.7-0.2,1.7,0.6,2.1l23.5,13.6
		c0.7,0.4,1.7,0.2,2.1-0.5c0,0,0,0,0,0l37.8-65.5C64.5,50.3,64.3,49.4,63.5,49L63.5,49z"/>
	<path class="st0" d="M25.8,97c0,3.1-2.5,5.6-5.6,5.6h0c-3.1,0-5.6-2.5-5.6-5.6l0,0c0-3.1,2.5-5.6,5.6-5.6h0
		C23.3,91.4,25.8,93.9,25.8,97L25.8,97z"/>
	<path class="st0" d="M184.8,92.5c0,3.1-2.5,5.6-5.6,5.6c-3.1,0-5.6-2.5-5.6-5.6c0-3.1,2.5-5.6,5.6-5.6
		C182.3,86.9,184.8,89.4,184.8,92.5z"/>
</g>
</svg>
